<svg xmlns="http://www.w3.org/2000/svg" width="327.828" height="237.259" viewBox="0 0 327.828 237.259">
  <g id="textbubble_burst_1" transform="translate(6.914 7.617)" fill="#fff">
    <path d="M 201.2669219970703 225.6416168212891 C 200.4474639892578 225.6416473388672 199.6318817138672 225.4370269775391 198.9082946777344 225.0498199462891 L 156.9999694824219 202.6215972900391 L 115.0917053222656 225.0497741699219 C 114.368293762207 225.4369506835938 113.5527954101562 225.6416168212891 112.7333297729492 225.6416168212891 C 110.8628311157227 225.6416168212891 109.1636657714844 224.6114807128906 108.2990036010742 222.9532318115234 L 90.46245574951172 188.7511749267578 L 38.75641632080078 191.4083251953125 C 38.67079162597656 191.4127349853516 38.58391571044922 191.4149932861328 38.49824905395508 191.4149932861328 C 36.92183303833008 191.4151153564453 35.42008209228516 190.6581115722656 34.48112487792969 189.3899841308594 C 33.54245758056641 188.1221923828125 33.25699996948242 186.4644470214844 33.7175407409668 184.9554443359375 L 44.11106491088867 150.8981018066406 L 0.2709999978542328 133.8166198730469 C -1.442083358764648 133.1490631103516 -2.647624969482422 131.6011505126953 -2.875250101089478 129.7769012451172 C -3.102916717529297 127.9526138305664 -2.314749956130981 126.1559448242188 -0.8183749914169312 125.0879440307617 L 33.81061172485352 100.374267578125 L 10.56629180908203 69.99898529052734 C 9.499333381652832 68.60469818115234 9.242917060852051 66.72640228271484 9.897208213806152 65.09715270996094 C 10.55150032043457 63.46786117553711 12.03579139709473 62.28852844238281 13.77079200744629 62.01944732666016 L 63.61305999755859 54.29068374633789 L 67.14971160888672 18.75927925109863 C 67.2742919921875 17.50732040405273 67.86008453369141 16.35723686218262 68.79916381835938 15.52102947235107 C 69.71666717529297 14.70402908325195 70.89733123779297 14.25407028198242 72.12371063232422 14.25407028198242 C 72.55858612060547 14.25407028198242 72.99266815185547 14.31107044219971 73.41400146484375 14.42348766326904 L 122.4174575805664 27.49538040161133 L 153.5467987060547 -2.233179330825806 C 154.4812927246094 -3.12567925453186 155.7077026367188 -3.617220878601074 157 -3.617220878601074 C 158.2922515869141 -3.617220878601074 159.5185852050781 -3.125762701034546 160.4531707763672 -2.233304262161255 L 191.5824737548828 27.49539375305176 L 240.5861663818359 14.4234037399292 C 241.0074615478516 14.3110294342041 241.4414520263672 14.25402927398682 241.8762054443359 14.25402927398682 C 243.1025390625 14.25402927398682 244.2831726074219 14.70394611358643 245.2006225585938 15.52082061767578 C 246.1398315429688 16.35707092285156 246.7257080078125 17.5071964263916 246.8502960205078 18.75932121276855 L 250.3869171142578 54.29066848754883 L 300.2290954589844 62.01944732666016 C 301.9642028808594 62.28852844238281 303.448486328125 63.46786117553711 304.102783203125 65.09715270996094 C 304.757080078125 66.72640228271484 304.5006713867188 68.60469818115234 303.4336547851562 69.99903106689453 L 280.1894226074219 100.3742446899414 L 314.8182983398438 125.0879058837891 C 316.3148193359375 126.1560287475586 317.1029968261719 127.9528198242188 316.875244140625 129.7771148681641 C 316.6475524902344 131.6014099121094 315.4419250488281 133.1492767333984 313.7288208007812 133.816650390625 L 269.8889465332031 150.8981323242188 L 280.282470703125 184.9555358886719 C 280.7428894042969 186.4642333984375 280.4574890136719 188.1218566894531 279.5190734863281 189.3895263671875 C 278.5802917480469 190.6576995849609 277.0787048339844 191.4149017333984 275.5024108886719 191.4150238037109 C 275.4166259765625 191.4150238037109 275.3296813964844 191.4128265380859 275.2438354492188 191.4084014892578 L 223.5375366210938 188.7511596679688 L 205.7008819580078 222.9534454345703 C 204.8363342285156 224.6114044189453 203.1373291015625 225.6414947509766 201.2669219970703 225.6416168212891 Z" stroke="none"/>
    <path d="M 157 0.38275146484375 C 156.7512817382812 0.38275146484375 156.5025787353516 0.4750213623046875 156.3093566894531 0.659576416015625 L 123.9620971679688 31.55131530761719 C 123.7099609375 31.7921142578125 123.3506011962891 31.88418579101562 123.0137023925781 31.79432678222656 L 72.38284301757812 18.28826904296875 C 71.78721618652344 18.12933349609375 71.19108581542969 18.54202270507812 71.13005065917969 19.15542602539062 L 67.36329650878906 56.99836730957031 C 67.31814575195312 57.45196533203125 66.97195434570312 57.81767272949219 66.52145385742188 57.88752746582031 L 14.38385009765625 65.97221374511719 C 13.63375854492188 66.08851623535156 13.28158569335938 66.96531677246094 13.74288940429688 67.568115234375 L 38.8721923828125 100.406623840332 C 39.21575927734375 100.8555679321289 39.11911010742188 101.4999237060547 38.658935546875 101.8283233642578 L 1.505340576171875 128.3437805175781 C 0.8583984375 128.8054809570312 0.982635498046875 129.8009643554688 1.72320556640625 130.0895233154297 L 48.15548706054688 148.1810302734375 C 48.64291381835938 148.3709716796875 48.901611328125 148.9043731689453 48.7489013671875 149.4046630859375 L 37.5433349609375 186.1230163574219 C 37.34088134765625 186.7862548828125 37.85885620117188 187.4492340087891 38.55108642578125 187.41357421875 L 92.18055725097656 184.6576232910156 C 92.5706787109375 184.6374664306641 92.93768310546875 184.8470611572266 93.11854553222656 185.1939239501953 L 111.8457489013672 221.1037750244141 C 112.1030578613281 221.5971832275391 112.7136383056641 221.7856140136719 113.2042541503906 221.5230712890625 L 156.5281524658203 198.3373260498047 C 156.8228912353516 198.1795654296875 157.1770477294922 198.1795654296875 157.4718475341797 198.3373260498047 L 200.7957000732422 221.5230712890625 C 201.2863159179688 221.7856140136719 201.8969116210938 221.5972137451172 202.1542053222656 221.1038208007812 L 220.8814086914062 185.1938781738281 C 221.062255859375 184.8470611572266 221.4288787841797 184.6375732421875 221.8193969726562 184.6576232910156 L 275.4488525390625 187.4136199951172 C 276.1414794921875 187.4491577148438 276.6589965820312 186.7863159179688 276.4566040039062 186.1230773925781 L 265.2510986328125 149.4047241210938 C 265.098388671875 148.9044189453125 265.3571166992188 148.3709716796875 265.8445129394531 148.1810607910156 L 312.2767944335938 130.0895233154297 C 313.0173950195312 129.8009643554688 313.1416015625 128.8055114746094 312.4946594238281 128.3437805175781 L 275.341064453125 101.8283233642578 C 274.8808898925781 101.4999237060547 274.7842407226562 100.8556213378906 275.1278381347656 100.406623840332 L 300.2570495605469 67.568115234375 C 300.7183532714844 66.96531677246094 300.3662414550781 66.08851623535156 299.6161499023438 65.97221374511719 L 247.4785003662109 57.88746643066406 C 247.0280456542969 57.817626953125 246.6817932128906 57.45196533203125 246.6366577148438 56.99832153320312 L 242.8699493408203 19.15542602539062 C 242.8088989257812 18.54196166992188 242.2127532958984 18.12928771972656 241.6171569824219 18.28822326660156 L 190.9862518310547 31.79432678222656 C 190.6493530273438 31.88414001464844 190.2900085449219 31.79212951660156 190.037841796875 31.55131530761719 L 157.6906433105469 0.659576416015625 C 157.4974212646484 0.4750213623046875 157.2487182617188 0.38275146484375 157 0.38275146484375 M 157 -7.617279052734375 L 160.206298828125 -7.617279052734375 L 163.2157440185547 -5.126022338867188 L 192.7211303710938 23.05177307128906 L 240.5684509277344 10.28822326660156 L 241.8761901855469 10.25401306152344 C 246.5209045410156 10.25401306152344 250.3704986572266 13.74017333984375 250.8305969238281 18.36306762695312 L 254.0604553222656 50.81251525878906 L 305.3425598144531 58.76457214355469 L 307.8145446777344 63.6063232421875 C 308.9924011230469 66.53907775878906 308.5309143066406 69.92012023925781 306.6101989746094 72.42997741699219 L 285.8793334960938 99.52080535888672 L 317.1419067382812 121.8320236206055 C 319.835693359375 123.7546691894531 321.2543640136719 126.9888229370117 320.8444519042969 130.2725219726562 C 320.4345397949219 133.5562133789062 318.2644958496094 136.3423767089844 315.1810913085938 137.5437316894531 L 274.7975158691406 153.2784729003906 L 285.2848510742188 187.6436157226562 L 282.7335510253906 191.7701263427734 C 281.0437622070312 194.0524291992188 278.3404541015625 195.4149780273438 275.5021362304688 195.4149780273438 L 225.8972625732422 192.8767395019531 L 209.24755859375 224.8030242919922 C 207.6909484863281 227.7876739501953 204.6328430175781 229.6416168212891 201.2666473388672 229.6416168212891 L 199.26025390625 229.6416168212891 L 197.0204010009766 228.5762176513672 L 157 207.1584167480469 L 115.2103424072266 229.5230712890625 L 112.7333068847656 229.6415710449219 C 109.3668518066406 229.6415710449219 106.3087005615234 227.7874755859375 104.7523040771484 224.8028259277344 L 88.09883117675781 192.8694000244141 L 34.67510986328125 195.6233215332031 L 31.26596069335938 191.7695159912109 C 29.57644653320312 189.4873199462891 29.06280517578125 186.5033264160156 29.89193725585938 183.7872619628906 L 39.20248413085938 153.2784576416016 L -1.18121337890625 137.5436706542969 C -4.26470947265625 136.3422241210938 -6.4346923828125 133.5559692382812 -6.844451904296875 130.2721710205078 C -7.254241943359375 126.9883728027344 -5.83544921875 123.7542724609375 -3.141845703125 121.8319702148438 L 28.1207275390625 99.52079772949219 L 4.62188720703125 68.81301879882812 L 6.185394287109375 63.60636901855469 C 7.363189697265625 60.67356872558594 10.03500366210938 58.55091857910156 13.15814208984375 58.06666564941406 L 59.93948364257812 50.81256103515625 L 63.16940307617188 18.36302185058594 C 63.62954711914062 13.74017333984375 67.47909545898438 10.25407409667969 72.12374877929688 10.25407409667969 L 73.17324829101562 10.25407409667969 L 74.44635009765625 10.55897521972656 L 121.2787780761719 23.05178833007812 L 153.1029510498047 -7.340423583984375 L 157 -7.617279052734375 Z" stroke="none" fill="#5e2a3b"/>
  </g>
</svg>
