<svg xmlns="http://www.w3.org/2000/svg" width="286" height="215.175" viewBox="0 0 286 215.175">
  <g id="textbubble_square" transform="translate(8 8)" fill="#fff" stroke-linecap="round">
    <path d="M 135.5003051757812 203.1747436523438 C 131.8296203613281 203.1747436523438 128.4109649658203 201.5292510986328 126.1209259033203 198.6602172851562 L 101.2411956787109 167.4849090576172 C 100.8616638183594 167.0094909667969 100.521354675293 166.5138244628906 100.2213592529297 166.0000152587891 L 3.999615430831909 166.0000152587891 C -0.4113846123218536 166.0000152587891 -4 162.4114074707031 -4 158.0003967285156 L -4 3.999594926834106 C -4 -0.4114050269126892 -0.4113846123218536 -3.999981880187988 3.999615430831909 -3.999981880187988 L 266.0003967285156 -3.999981880187988 C 270.411376953125 -3.999981880187988 274 -0.4114050269126892 274 3.999594926834106 L 274 158.0003967285156 C 274 162.4114074707031 270.411376953125 166.0000152587891 266.0003967285156 166.0000152587891 L 170.7792510986328 166.0000152587891 C 170.4793243408203 166.5137939453125 170.1390533447266 167.0094909667969 169.7595367431641 167.4850158691406 L 144.8790740966797 198.6600494384766 C 142.5897674560547 201.5290985107422 139.1712646484375 203.1747436523438 135.5003051757812 203.1747436523438 Z" stroke="none"/>
    <path d="M 135.5002899169922 199.1747436523438 C 137.8260040283203 199.1747436523438 140.1515808105469 198.1714477539062 141.7527008056641 196.1649017333984 L 166.6332092285156 164.9898223876953 C 167.3802032470703 164.0538635253906 167.8746185302734 163.0377349853516 168.1447906494141 161.9999847412109 L 266.0004272460938 161.9999847412109 C 268.2090148925781 161.9999847412109 270 160.208984375 270 158.0004119873047 L 270 3.999614238739014 C 270 1.79098916053772 268.2090148925781 -1.080322272173362e-05 266.0004272460938 -1.080322272173362e-05 L 3.999624967575073 -1.080322272173362e-05 C 1.791000008583069 -1.080322272173362e-05 2.842170943040401e-14 1.79098916053772 2.842170943040401e-14 3.999614238739014 L 2.842170943040401e-14 158.0004119873047 C 2.842170943040401e-14 160.208984375 1.791000008583069 161.9999847412109 3.999624967575073 161.9999847412109 L 102.8557052612305 161.9999847412109 C 103.1258773803711 163.0377349853516 103.6204605102539 164.0538635253906 104.3675842285156 164.9898223876953 L 129.2472076416016 196.1649017333984 C 130.8487548828125 198.1714477539062 133.1745758056641 199.1747436523438 135.5002899169922 199.1747436523438 M 135.5002899169922 207.1747436523438 C 130.6060028076172 207.1747436523438 126.0478744506836 204.9807739257812 122.9946670532227 201.1554412841797 L 98.13066864013672 169.9999847412109 L 3.999624967575073 169.9999847412109 C -2.617000102996826 169.9999847412109 -8 164.6169891357422 -8 158.0004119873047 L -8 3.999614238739014 C -8 -2.617010831832886 -2.617000102996826 -8.00001049041748 3.999624967575073 -8.00001049041748 L 266.0004272460938 -8.00001049041748 C 272.6170043945312 -8.00001049041748 278 -2.617010831832886 278 3.999614238739014 L 278 158.0004119873047 C 278 164.6169891357422 272.6170043945312 169.9999847412109 266.0004272460938 169.9999847412109 L 172.8701171875 169.9999847412109 L 148.0054931640625 201.1551971435547 C 144.9530487060547 204.9804840087891 140.3949127197266 207.1747436523438 135.5002899169922 207.1747436523438 Z" stroke="none" fill="#5e2a3b"/>
  </g>
</svg>
