<svg xmlns="http://www.w3.org/2000/svg" width="286" height="215.175" viewBox="0 0 286 215.175">
  <g id="textbubble_roundsquare" transform="translate(8 8)" fill="#fff" stroke-linecap="round">
    <path d="M 135.5003051757812 203.1747436523438 C 131.8296203613281 203.1747436523438 128.4109649658203 201.5292510986328 126.1209259033203 198.6602172851562 L 101.2411956787109 167.4849090576172 C 100.8616638183594 167.0094909667969 100.521354675293 166.5138244628906 100.2213592529297 166.0000152587891 L 32.00038528442383 166.0000152587891 C 27.14215469360352 166.0000152587891 22.42707633972168 165.0476379394531 17.98619270324707 163.1692810058594 C 13.69884586334229 161.3558654785156 9.849230766296387 158.7606353759766 6.54426908493042 155.4557037353516 C 3.239346265792847 152.1507873535156 0.6441538333892822 148.3011779785156 -1.169269204139709 144.0137939453125 C -3.04761528968811 139.5729064941406 -4 134.8578643798828 -4 129.9995880126953 L -4 32.00040435791016 C -4 27.14213371276855 -3.04761528968811 22.42709541320801 -1.169269204139709 17.98620986938477 C 0.6441538333892822 13.69882583618164 3.239346265792847 9.849210739135742 6.544307708740234 6.544287204742432 C 9.849230766296387 3.239364147186279 13.69884586334229 0.6441718935966492 17.98619270324707 -1.169251203536987 C 22.42707633972168 -3.047597408294678 27.14215469360352 -3.999981880187988 32.00038528442383 -3.999981880187988 L 237.9996185302734 -3.999981880187988 C 242.8578796386719 -3.999981880187988 247.5729217529297 -3.047597408294678 252.0138092041016 -1.169251203536987 C 256.3011779785156 0.6441718935966492 260.1508178710938 3.239364147186279 263.4557189941406 6.544287204742432 C 266.7606506347656 9.849210739135742 269.3558349609375 13.69882583618164 271.1692810058594 17.98620986938477 C 273.047607421875 22.42709541320801 274 27.14213371276855 274 32.00040435791016 L 274 129.9995880126953 C 274 134.8578643798828 273.047607421875 139.5729064941406 271.1692810058594 144.0137939453125 C 269.3558349609375 148.3011779785156 266.7606506347656 152.1507873535156 263.4557189941406 155.4557037353516 C 260.1508178710938 158.7606353759766 256.3011779785156 161.3558654785156 252.0138092041016 163.1692810058594 C 247.5729217529297 165.0476379394531 242.8578796386719 166.0000152587891 237.9996185302734 166.0000152587891 L 170.7792510986328 166.0000152587891 C 170.4793243408203 166.5137939453125 170.1390533447266 167.0094909667969 169.7595367431641 167.4850158691406 L 144.8790740966797 198.6600494384766 C 142.5897674560547 201.5290985107422 139.1712646484375 203.1747436523438 135.5003051757812 203.1747436523438 Z" stroke="none"/>
    <path d="M 135.5002899169922 199.1747436523438 C 137.8260040283203 199.1747436523438 140.1515808105469 198.1714477539062 141.7527008056641 196.1649017333984 L 166.6332092285156 164.9898223876953 C 167.3802032470703 164.0538635253906 167.8746185302734 163.0377349853516 168.1447906494141 161.9999847412109 L 237.9996185302734 161.9999847412109 C 255.6729125976562 161.9999847412109 270 147.6729125976562 270 129.9996185302734 L 270 32.00040435791016 C 270 14.32711410522461 255.6729125976562 -1.080322272173362e-05 237.9996185302734 -1.080322272173362e-05 L 32.00041580200195 -1.080322272173362e-05 C 14.32712459564209 -1.080322272173362e-05 2.842170943040401e-14 14.32711410522461 2.842170943040401e-14 32.00040435791016 L 2.842170943040401e-14 129.9996185302734 C 2.842170943040401e-14 147.6729125976562 14.32712459564209 161.9999847412109 32.00041580200195 161.9999847412109 L 102.8557052612305 161.9999847412109 C 103.1258773803711 163.0377349853516 103.6204605102539 164.0538635253906 104.3675842285156 164.9898223876953 L 129.2472076416016 196.1649017333984 C 130.8487548828125 198.1714477539062 133.1745758056641 199.1747436523438 135.5002899169922 199.1747436523438 M 135.5002899169922 207.1747436523438 C 130.6060028076172 207.1747436523438 126.0478744506836 204.9807739257812 122.9946670532227 201.1554412841797 L 98.13066864013672 169.9999847412109 L 32.00041580200195 169.9999847412109 C 9.944125175476074 169.9999847412109 -8 152.055908203125 -8 129.9996185302734 L -8 32.00040435791016 C -8 9.944113731384277 9.944125175476074 -8.00001049041748 32.00041580200195 -8.00001049041748 L 237.9996185302734 -8.00001049041748 C 260.055908203125 -8.00001049041748 278 9.944113731384277 278 32.00040435791016 L 278 129.9996185302734 C 278 152.055908203125 260.055908203125 169.9999847412109 237.9996185302734 169.9999847412109 L 172.8701171875 169.9999847412109 L 148.0054931640625 201.1551971435547 C 144.9530487060547 204.9804840087891 140.3949127197266 207.1747436523438 135.5002899169922 207.1747436523438 Z" stroke="none" fill="#5e2a3b"/>
  </g>
</svg>
