<svg xmlns="http://www.w3.org/2000/svg" width="286" height="215.175" viewBox="0 0 286 215.175">
  <g id="textbubble_round" transform="translate(8 8)" fill="#fff" stroke-linecap="round">
    <path d="M 135.5003051757812 203.1747436523438 C 131.8296203613281 203.1747436523438 128.4109649658203 201.5292510986328 126.1209259033203 198.6602172851562 L 101.2411956787109 167.4849090576172 C 100.8616638183594 167.0094909667969 100.521354675293 166.5138244628906 100.2213592529297 166.0000152587891 L 81 166.0000152587891 C 75.23542022705078 166.0000152587891 69.47330474853516 165.4190216064453 63.87369155883789 164.2732086181641 C 58.41434478759766 163.1560516357422 53.04430770874023 161.4891357421875 47.91280746459961 159.3187103271484 C 42.87534713745117 157.1880493164062 38.01699829101562 154.5511016845703 33.47277069091797 151.4810638427734 C 28.97273063659668 148.4409027099609 24.74123001098633 144.9496307373047 20.89580726623535 141.1042175292969 C 17.05038452148438 137.2587890625 13.55911540985107 133.0272827148438 10.51896190643311 128.5272521972656 C 7.448923110961914 123.9830169677734 4.811961650848389 119.1246719360352 2.681307792663574 114.0872116088867 C 0.5108846426010132 108.9557113647461 -1.156038403511047 103.5856704711914 -2.273192405700684 98.12632751464844 C -3.418999910354614 92.52671051025391 -4 86.76459503173828 -4 81.00001525878906 C -4 75.23544311523438 -3.418999910354614 69.47332763671875 -2.273192405700684 63.87371063232422 C -1.156038403511047 58.41432571411133 0.5108846426010132 53.04432678222656 2.681307792663574 47.91282653808594 C 4.811961650848389 42.87536239624023 7.448923110961914 38.01701736450195 10.51896190643311 33.47278594970703 C 13.55911540985107 28.97270965576172 17.05038452148438 24.7412109375 20.89580726623535 20.89582633972168 C 24.74123001098633 17.0504035949707 28.97273063659668 13.55909538269043 33.47277069091797 10.51894092559814 C 38.01699829101562 7.448941230773926 42.87534713745117 4.8119797706604 47.91280746459961 2.681325674057007 C 53.04430770874023 0.5109026432037354 58.41434478759766 -1.156020402908325 63.87369155883789 -2.273174285888672 C 69.47330474853516 -3.418982028961182 75.23542022705078 -3.999981880187988 81 -3.999981880187988 L 189 -3.999981880187988 C 194.7645721435547 -3.999981880187988 200.5266876220703 -3.418982028961182 206.1263122558594 -2.273174285888672 C 211.585693359375 -1.156020402908325 216.9556884765625 0.5109026432037354 222.0871887207031 2.681325674057007 C 227.1246490478516 4.8119797706604 231.9830017089844 7.448941230773926 236.5272369384766 10.51894092559814 C 241.0273132324219 13.55909538269043 245.2588043212891 17.0504035949707 249.1041870117188 20.89582633972168 C 252.9496154785156 24.7412109375 256.44091796875 28.97270965576172 259.4810791015625 33.47278594970703 C 262.5510864257812 38.01701736450195 265.1880493164062 42.87536239624023 267.3186950683594 47.91282653808594 C 269.4891052246094 53.04432678222656 271.1560363769531 58.41432571411133 272.273193359375 63.87371063232422 C 273.4190063476562 69.47332763671875 274 75.23544311523438 274 81.00001525878906 C 274 86.76459503173828 273.4190063476562 92.52671051025391 272.273193359375 98.12632751464844 C 271.1560363769531 103.5856704711914 269.4891052246094 108.9557113647461 267.3186950683594 114.0872116088867 C 265.1880493164062 119.1246719360352 262.5510864257812 123.9830169677734 259.4810791015625 128.5272521972656 C 256.44091796875 133.0272827148438 252.9496154785156 137.2587890625 249.1041870117188 141.1042175292969 C 245.2588043212891 144.9496307373047 241.0273132324219 148.4409027099609 236.5272369384766 151.4810638427734 C 231.9830017089844 154.5511016845703 227.1246490478516 157.1880493164062 222.0871887207031 159.3187103271484 C 216.9556884765625 161.4891357421875 211.585693359375 163.1560516357422 206.1263122558594 164.2732086181641 C 200.5266876220703 165.4190216064453 194.7645721435547 166.0000152587891 189 166.0000152587891 L 170.7792510986328 166.0000152587891 C 170.4793243408203 166.5137939453125 170.1390533447266 167.0094909667969 169.7595367431641 167.4850158691406 L 144.8790740966797 198.6600494384766 C 142.5897674560547 201.5290985107422 139.1712646484375 203.1747436523438 135.5003051757812 203.1747436523438 Z" stroke="none"/>
    <path d="M 135.5002899169922 199.1747436523438 C 137.8260040283203 199.1747436523438 140.1515808105469 198.1714477539062 141.7527008056641 196.1649017333984 L 166.6332092285156 164.9898223876953 C 167.3802032470703 164.0538635253906 167.8746185302734 163.0377349853516 168.1447906494141 161.9999847412109 L 189 161.9999847412109 C 233.7354125976562 161.9999847412109 270 125.7354049682617 270 80.99999237060547 C 270 36.26461410522461 233.7354125976562 -1.080322272173362e-05 189 -1.080322272173362e-05 L 81 -1.080322272173362e-05 C 36.26462554931641 -1.080322272173362e-05 2.842170943040401e-14 36.26461410522461 2.842170943040401e-14 80.99999237060547 C 2.842170943040401e-14 125.7354049682617 36.26462554931641 161.9999847412109 81 161.9999847412109 L 102.8557052612305 161.9999847412109 C 103.1258773803711 163.0377349853516 103.6204605102539 164.0538635253906 104.3675842285156 164.9898223876953 L 129.2472076416016 196.1649017333984 C 130.8487548828125 198.1714477539062 133.1745758056641 199.1747436523438 135.5002899169922 199.1747436523438 M 135.5002899169922 207.1747436523438 C 130.6060028076172 207.1747436523438 126.0478744506836 204.9807739257812 122.9946670532227 201.1554412841797 L 98.13066864013672 169.9999847412109 L 81 169.9999847412109 C 31.92524909973145 169.9999847412109 -8 130.0747375488281 -8 80.99999237060547 C -8 31.92523956298828 31.92524909973145 -8.00001049041748 81 -8.00001049041748 L 189 -8.00001049041748 C 238.0747528076172 -8.00001049041748 278 31.92523956298828 278 80.99999237060547 C 278 130.0747375488281 238.0747528076172 169.9999847412109 189 169.9999847412109 L 172.8701171875 169.9999847412109 L 148.0054931640625 201.1551971435547 C 144.9530487060547 204.9804840087891 140.3949127197266 207.1747436523438 135.5002899169922 207.1747436523438 Z" stroke="none" fill="#5e2a3b"/>
  </g>
</svg>
